<svg width="76" height="76" viewBox="0 0 76 76" fill="none" xmlns="http://www.w3.org/2000/svg">
<path d="M34.4375 10.6875H11.875C11.2219 10.6875 10.6875 11.2219 10.6875 11.875V34.4375C10.6875 35.0906 11.2219 35.625 11.875 35.625H34.4375C35.0906 35.625 35.625 35.0906 35.625 34.4375V11.875C35.625 11.2219 35.0906 10.6875 34.4375 10.6875ZM30.5781 30.5781H15.7344V15.7344H30.5781V30.5781ZM64.125 10.6875H41.5625C40.9094 10.6875 40.375 11.2219 40.375 11.875V34.4375C40.375 35.0906 40.9094 35.625 41.5625 35.625H64.125C64.7781 35.625 65.3125 35.0906 65.3125 34.4375V11.875C65.3125 11.2219 64.7781 10.6875 64.125 10.6875ZM60.2656 30.5781H45.4219V15.7344H60.2656V30.5781ZM64.125 40.375H41.5625C40.9094 40.375 40.375 40.9094 40.375 41.5625V64.125C40.375 64.7781 40.9094 65.3125 41.5625 65.3125H64.125C64.7781 65.3125 65.3125 64.7781 65.3125 64.125V41.5625C65.3125 40.9094 64.7781 40.375 64.125 40.375ZM60.2656 60.2656H45.4219V45.4219H60.2656V60.2656Z" fill="#707070"/>
<path d="M31.4688 52.8438H21.9688V43.3438C21.9688 43.0172 21.7016 42.75 21.375 42.75H17.8125C17.4859 42.75 17.2188 43.0172 17.2188 43.3438V52.8438H7.71875C7.39219 52.8438 7.125 53.1109 7.125 53.4375V57C7.125 57.3266 7.39219 57.5938 7.71875 57.5938H17.2188V67.0938C17.2188 67.4203 17.4859 67.6875 17.8125 67.6875H21.375C21.7016 67.6875 21.9688 67.4203 21.9688 67.0938V57.5938H31.4688C31.7953 57.5938 32.0625 57.3266 32.0625 57V53.4375C32.0625 53.1109 31.7953 52.8438 31.4688 52.8438Z" fill="#707070"/>
</svg>
